<?xml version="1.0" encoding="UTF-8" standalone="no"?>
<!DOCTYPE svg PUBLIC "-//W3C//DTD SVG 1.0//EN" "http://www.w3.org/TR/2001/PR-SVG-20010719/DTD/svg10.dtd">
<svg width="14cm" height="10cm" viewBox="18 9 263 182" xmlns="http://www.w3.org/2000/svg" xmlns:xlink="http://www.w3.org/1999/xlink">
  <g>
    <rect style="fill: none; fill-opacity:0; stroke-width: 2; stroke: #000000" x="20" y="30" width="260" height="160"/>
    <g>
      <rect style="fill: #ffffff" x="20" y="10" width="60" height="19.5094"/>
      <rect style="fill: none; fill-opacity:0; stroke-width: 1; stroke: #000000" x="20" y="10" width="60" height="19.5094"/>
    </g>
    <text font-size="11.2889" style="fill: #000000;text-anchor:middle;font-family:sans-serif;font-style:normal;font-weight:normal" x="50" y="23.6797">
      <tspan x="50" y="23.6797">Accueil</tspan>
    </text>
    <g>
      <rect style="fill: #ffffff" x="20" y="70" width="260" height="120"/>
      <rect style="fill: none; fill-opacity:0; stroke-width: 1; stroke: #000000" x="20" y="70" width="260" height="120"/>
    </g>
    <g>
      <rect style="fill: #ffffff" x="30" y="80" width="180" height="100"/>
      <rect style="fill: none; fill-opacity:0; stroke-width: 1; stroke: #000000" x="30" y="80" width="180" height="100"/>
    </g>
    <g>
      <rect style="fill: #ffffff" x="220" y="70" width="60" height="120"/>
      <rect style="fill: none; fill-opacity:0; stroke-width: 1; stroke: #000000" x="220" y="70" width="60" height="120"/>
    </g>
    <text font-size="12.8" style="fill: #000000;text-anchor:start;font-family:sans-serif;font-style:normal;font-weight:normal" x="40" y="100">
      <tspan x="40" y="100">Liste utilisateur recherché</tspan>
    </text>
    <g>
      <g>
        <rect style="fill: #ffffff" x="20" y="30" width="260" height="40"/>
        <rect style="fill: none; fill-opacity:0; stroke-width: 1; stroke: #000000" x="20" y="30" width="260" height="40"/>
      </g>
      <g>
        <rect style="fill: #ffffff" x="60" y="50" width="40" height="10"/>
        <rect style="fill: none; fill-opacity:0; stroke-width: 1; stroke: #000000" x="60" y="50" width="40" height="10"/>
      </g>
      <text font-size="7.90222" style="fill: #000000;text-anchor:start;font-family:sans-serif;font-style:normal;font-weight:normal" x="30" y="40">
        <tspan x="30" y="40">Recherche utilisateur</tspan>
      </text>
      <text font-size="6.77333" style="fill: #000000;text-anchor:start;font-family:sans-serif;font-style:normal;font-weight:normal" x="30" y="57.325">
        <tspan x="30" y="57.325">Nom : </tspan>
      </text>
      <g>
        <rect style="fill: #ffffff" x="180" y="50" width="40" height="10"/>
        <rect style="fill: none; fill-opacity:0; stroke-width: 1; stroke: #000000" x="180" y="50" width="40" height="10"/>
      </g>
      <text font-size="6.77333" style="fill: #000000;text-anchor:start;font-family:sans-serif;font-style:normal;font-weight:normal" x="160" y="57.325">
        <tspan x="160" y="57.325">Id : </tspan>
      </text>
      <g>
        <g>
          <rect style="fill: #e6e6fa" x="110" y="50" width="40" height="10"/>
          <rect style="fill: none; fill-opacity:0; stroke-width: 1; stroke: #000000" x="110" y="50" width="40" height="10"/>
        </g>
        <text font-size="6.77333" style="fill: #000000;text-anchor:middle;font-family:sans-serif;font-style:normal;font-weight:normal" x="130" y="57.325">
          <tspan x="130" y="57.325">Chercher</tspan>
        </text>
      </g>
      <g>
        <g>
          <rect style="fill: #e6e6fa" x="230" y="50" width="40" height="10"/>
          <rect style="fill: none; fill-opacity:0; stroke-width: 1; stroke: #000000" x="230" y="50" width="40" height="10"/>
        </g>
        <text font-size="6.77333" style="fill: #000000;text-anchor:middle;font-family:sans-serif;font-style:normal;font-weight:normal" x="250" y="57.325">
          <tspan x="250" y="57.325">Chercher</tspan>
        </text>
      </g>
    </g>
    <g>
      <g>
        <rect style="fill: #e6e6fa" x="230" y="130" width="40" height="20"/>
        <rect style="fill: none; fill-opacity:0; stroke-width: 1; stroke: #000000" x="230" y="130" width="40" height="20"/>
      </g>
      <text font-size="6.77333" style="fill: #000000;text-anchor:middle;font-family:sans-serif;font-style:normal;font-weight:normal" x="250" y="138.092">
        <tspan x="250" y="138.092">Modifier</tspan>
        <tspan x="250" y="146.558">utilisateur</tspan>
      </text>
    </g>
    <g>
      <g>
        <rect style="fill: #e6e6fa" x="230" y="90" width="40" height="20"/>
        <rect style="fill: none; fill-opacity:0; stroke-width: 1; stroke: #000000" x="230" y="90" width="40" height="20"/>
      </g>
      <text font-size="6.77333" style="fill: #000000;text-anchor:middle;font-family:sans-serif;font-style:normal;font-weight:normal" x="250" y="98.0917">
        <tspan x="250" y="98.0917">Nouvel</tspan>
        <tspan x="250" y="106.558">utilisateur</tspan>
      </text>
    </g>
  </g>
</svg>
